<?xml version="1.0" standalone="no"?>
<svg xmlns:xlink="http://www.w3.org/1999/xlink" id="wave" style="transform:rotate(0deg); transition: 0.3s" viewBox="0 0 1440 490" version="1.1" xmlns="http://www.w3.org/2000/svg"><defs><linearGradient id="sw-gradient-0" x1="0" x2="0" y1="1" y2="0"><stop stop-color="rgba(243, 106, 62, 1)" offset="0%"/><stop stop-color="rgba(255, 179, 11, 1)" offset="100%"/></linearGradient></defs><path style="transform:translate(0, 0px); opacity:1" fill="url(#sw-gradient-0)" d="M0,245L24,220.5C48,196,96,147,144,122.5C192,98,240,98,288,155.2C336,212,384,327,432,351.2C480,376,528,310,576,302.2C624,294,672,343,720,343C768,343,816,294,864,285.8C912,278,960,310,1008,310.3C1056,310,1104,278,1152,269.5C1200,261,1248,278,1296,285.8C1344,294,1392,294,1440,302.2C1488,310,1536,327,1584,302.2C1632,278,1680,212,1728,212.3C1776,212,1824,278,1872,302.2C1920,327,1968,310,2016,326.7C2064,343,2112,392,2160,392C2208,392,2256,343,2304,310.3C2352,278,2400,261,2448,220.5C2496,180,2544,114,2592,147C2640,180,2688,310,2736,310.3C2784,310,2832,180,2880,138.8C2928,98,2976,147,3024,212.3C3072,278,3120,359,3168,326.7C3216,294,3264,147,3312,81.7C3360,16,3408,33,3432,40.8L3456,49L3456,490L3432,490C3408,490,3360,490,3312,490C3264,490,3216,490,3168,490C3120,490,3072,490,3024,490C2976,490,2928,490,2880,490C2832,490,2784,490,2736,490C2688,490,2640,490,2592,490C2544,490,2496,490,2448,490C2400,490,2352,490,2304,490C2256,490,2208,490,2160,490C2112,490,2064,490,2016,490C1968,490,1920,490,1872,490C1824,490,1776,490,1728,490C1680,490,1632,490,1584,490C1536,490,1488,490,1440,490C1392,490,1344,490,1296,490C1248,490,1200,490,1152,490C1104,490,1056,490,1008,490C960,490,912,490,864,490C816,490,768,490,720,490C672,490,624,490,576,490C528,490,480,490,432,490C384,490,336,490,288,490C240,490,192,490,144,490C96,490,48,490,24,490L0,490Z"/></svg>